<svg xmlns="http://www.w3.org/2000/svg" version="1.1" viewBox="0 0 240 180" fill="none"><path d="M0 0h76v180h-76Z" fill="#0018a8" /><path d="M76 0h88v180h-88Z" fill="#fedf00" /><path d="M164 0h76v180h-76Z" fill="#d0103a" /><path d="M120 129c-6-1-12-3-9-6c-2-9-32 5-23-24c5-3 6-6 1-9c-9-9-5-16 6-19c-15-14 10-17 10-10c0 2 3 2 6 1c-3-10 0-12 9-7c10-5 13-3 9 7c3 1 6 1 6-1c0-8 25-4 10 10c11 3 14 10 6 19c-4 4-4 7 1 9c9 29-21 16-23 24c3 3-9 6-9 6Z" fill="#B59967" /><path d="M99 66h42v37c-4 9-16 1-21 6c-4-5-18 3-21-7v-37Z" fill="#fedf00" /><path d="M99 66h20v20h-20v-20ZM125 98c3 1 7 1 11 1l-1 7c-2-3-7-3-9 0c1-5-5-5-2-7ZM125 89c3 1 7 1 11 1l-1 7c-2-3-7-3-9 0c1-5-5-5-2-7Z" fill="#d52b1e" /><path d="M120 64v46M98 87h44" stroke-width="2" stroke="#c7b37f" /><path d="M125 66v20M131 66v20M137 66v20" stroke-width="3" stroke="#d52b1e" /><path d="M103 88v19M107 88v20M111 88v20M115 88v20" stroke-width="2" stroke="#d52b1e" /><path d="M109 68l5 7l-3 7h-5l-3-6l5-7Z" fill="#fedf00" stroke="#fff" /><path d="M100 83c0-11 5 9 9-3c3 13 9-8 8 3" stroke="#fff" /></svg>