<svg xmlns="http://www.w3.org/2000/svg" version="1.1" viewBox="0 0 240 180" fill="none"><path d="M0 0h80v180h-80" fill="#000" /><path d="M80 0h80v180h-80" fill="#b1220b" /><path d="M160 0h80v180h-80" fill="#409821" /><path d="M96 64c-6-4-6-4-12-8c-33 38-8 70 10 84c16 6 34 8 50-2c12-8 46-38 10-82c-6 4-6 4-12 8c16 22 16 44-12 66c-2 0 0-2 2-8h-28c0 0 2 6 2 8c-13-13-35-30-11-66Z M96 116l7-6v-9l-6-9l-5 12l-4-6l6-14l9 15v-33h4v14c0 0 2-2 4-2c-4-17 20-17 14 0c2 0 2 2 4 2v-14h4v32l10-14l6 16l-4 4l-6-12l-6 8v10l8 6h-46Z" fill="rgba(255,255,255,0.85)" /><path d="M87 53c18-14 39-18 63 0c-4 3-4 4-8 7c-16-10-29-12-47 0c-3-4-4-4-7-7Z" fill="rgba(255,255,255,0.5)" /></svg>