<svg xmlns="http://www.w3.org/2000/svg" version="1.1" viewBox="0 0 240 180" fill="none"><path d="M0 0h240v180h-240" fill="#000066" /><path d="M221 0h19v180h-20l-220-55v-69Z" fill="#bf0a19" /><path d="M0 66l240-60v168l-240-59v-49Z" fill="#fff" /><path d="M133 83c61-32 61-11 97-19c8 4 7 12 2 22c-46-9-82-1-90 7l-14 2ZM208 80l4-11l22 1l-23 4l24 2l-24 1l23 6Z" stroke="#000" /><path d="M158 44l71-20c1 9-11 29-11 29l-17 11l13 2v16h-10c6 4 7 9 2 16c-6 1-8 4-3 9c-8-1-11 8-11 8l-13-2c0 0 5-28-17-26c5-3 0-15-6-13c3-3 3-10-10-2c-19-3 4-13 4-16c-2-6 0-10 8-12Z" fill="#9e3900" stroke="#000" /><path d="M115 105l18-4l6 7l2-6l5 1l3 6l11 3l2-3l12 7l11-10l6 4l-3 8l29 7l-3 7l-57-3l39 6l3 6l-8 5l-46-12l-9-8l4-5l25 3l3-2l4-3l-12 1l-1-4l-11-2l-5 5l-5-1l1-6l-8 4ZM184 124l-1 3l25 2l-24-5ZM130 100c-5-3-5-7 0-11l2 5h10c-2 3-5 4-11 4c-1 1-1 2-1 2Z" fill="#ffc300" stroke="#000" /><path d="M168 70c0 7 7 11 22 10M178 84c6 4 8 11 6 21h8l1-6l7-3l-4-8M227 29l-68 26l65-22l-54 24l52-16l-45 21l41-13l-34 17l25 4l-7 3l5 3l-6 2M142 86l2-5l-8 5l3 2v-4c-2 1-4 2-4 4M177 115l-8 16l11-14l-7 14l11-13l-6 13M180 137l-34-7l35 10" stroke="#000" /></svg>