<svg xmlns="http://www.w3.org/2000/svg" version="1.1" viewBox="0 0 240 180" fill="none"><path d="M0 0h240v180H0z" fill="#000068" /><path d="M115 92h14v-12l-115-80h-14v12l115 80ZM115 0h14v12l-115 80h-14v-12l115-80Z" fill="#fff" /><path d="M53 0h23v30h53v32h-53v30h-23v-30h-53v-32h53Z" fill="#fff" /><path d="M57 0h15v36h57v20h-57v36h-15v-36h-57v-20h57Z" fill="#ce0000" /><path d="M32 30l-31-22v-8l42 30ZM40 62h10l-40 30h-10ZM88 62h10l31 22v8ZM90 29h-10l41-29h10Z" fill="#ce0000" /><path d="M87 115l5 15l15-5l-9 14l13 8l-16 1l2 16l-11-12l-11 11l2-15l-16-2l13-8l-8-13l15 5ZM144 97l4-8l4 7l7 3l-7 4l-4 7l-3-7l-7-4ZM218 87l4-8l4 7l7 3l-7 4l-4 7l-3-7l-7-4ZM183 160l4-8l4 7l7 3l-7 4l-4 7l-3-7l-7-4ZM201 114l2-4l2 4l4 2l-4 2l-2 4l-2-4l-4-2ZM183 55l4-8l4 7l7 3l-7 4l-4 7l-3-7l-7-4Z" fill="#fff" /></svg>