<svg xmlns="http://www.w3.org/2000/svg" version="1.1" viewBox="0 0 2400 360" fill="none"><g transform="translate(0,0)"><path fill="#000" d="M0 0h240v70h-240Z" /><path fill="#E20000" d="M120 180l120-162v162h-240v-162Z" /><path fill="#FFF" d="M68 110h104l-52 70Z" /><path fill="#0061ff" d="M38 70h164l-30 40h-104Z" /><path fill="#FFD600" d="M58 70l28-6l-22-16l26 4l-14-24l26 14l-6-28l18 22l8-26l6 26l16-22l-4 26l24-14l-14 26l28-4l-22 16l26 6Z" /></g><g transform="translate(240,0)"><path d="M0 0h76v180h-76Z" fill="#0018a8" /><path d="M76 0h88v180h-88Z" fill="#fedf00" /><path d="M164 0h76v180h-76Z" fill="#d0103a" /><path d="M120 129c-6-1-12-3-9-6c-2-9-32 5-23-24c5-3 6-6 1-9c-9-9-5-16 6-19c-15-14 10-17 10-10c0 2 3 2 6 1c-3-10 0-12 9-7c10-5 13-3 9 7c3 1 6 1 6-1c0-8 25-4 10 10c11 3 14 10 6 19c-4 4-4 7 1 9c9 29-21 16-23 24c3 3-9 6-9 6Z" fill="#B59967" /><path d="M99 66h42v37c-4 9-16 1-21 6c-4-5-18 3-21-7v-37Z" fill="#fedf00" /><path d="M99 66h20v20h-20v-20ZM125 98c3 1 7 1 11 1l-1 7c-2-3-7-3-9 0c1-5-5-5-2-7ZM125 89c3 1 7 1 11 1l-1 7c-2-3-7-3-9 0c1-5-5-5-2-7Z" fill="#d52b1e" /><path d="M120 64v46M98 87h44" stroke-width="2" stroke="#c7b37f" /><path d="M125 66v20M131 66v20M137 66v20" stroke-width="3" stroke="#d52b1e" /><path d="M103 88v19M107 88v20M111 88v20M115 88v20" stroke-width="2" stroke="#d52b1e" /><path d="M109 68l5 7l-3 7h-5l-3-6l5-7Z" fill="#fedf00" stroke="#fff" /><path d="M100 83c0-11 5 9 9-3c3 13 9-8 8 3" stroke="#fff" /></g><g transform="translate(480,0)"><path fill="#ED3113" d="M0 0h80v180h-80" /><path fill="#2E7235" d="M80 0h160v60h-160" /><path fill="#FFFFFF" d="M80 60h160v60h-160" /><path fill="#000000" d="M80 120h160v60h-160" /></g><g transform="translate(720,0)"><path d="M0 0h80v180h-80" fill="#000" /><path d="M80 0h80v180h-80" fill="#b1220b" /><path d="M160 0h80v180h-80" fill="#409821" /><path d="M96 64c-6-4-6-4-12-8c-33 38-8 70 10 84c16 6 34 8 50-2c12-8 46-38 10-82c-6 4-6 4-12 8c16 22 16 44-12 66c-2 0 0-2 2-8h-28c0 0 2 6 2 8c-13-13-35-30-11-66Z M96 116l7-6v-9l-6-9l-5 12l-4-6l6-14l9 15v-33h4v14c0 0 2-2 4-2c-4-17 20-17 14 0c2 0 2 2 4 2v-14h4v32l10-14l6 16l-4 4l-6-12l-6 8v10l8 6h-46Z" fill="rgba(255,255,255,0.85)" /><path d="M87 53c18-14 39-18 63 0c-4 3-4 4-8 7c-16-10-29-12-47 0c-3-4-4-4-7-7Z" fill="rgba(255,255,255,0.5)" /></g><g transform="translate(960,0)"><path fill="#000068" d="M0 0h240v180h-240" /><path d="M132 92h16v-12l-132-80h-16v12ZM132 0h16v12l-132 80h-16v-12Z" fill="#fff" /><path d="M58 30v-30h32v30h58v32h-58v30h-32v-30h-58v-32Z" fill="#fff" /><path d="M64 36v-36h20v36h64v20h-64v36h-20v-36h-64v-20Z" fill="#ce0000" /><path d="M48 30h-12l-36-22v-8ZM46 62h12l-46 30h-12ZM100 62h12l36 22v8ZM103 29h-12l47-29h11Z" fill="#ce0000" /><path d="M172 96c0 4 26 4 26 0c0 4 26 4 26 0c0 60-20 66-26 66c-6 0-26-8-26-66Z" fill="#fff" stroke="#ccce19" /><path d="M178 144h38c0 6-10 18-18 18c-8 0-18-12-18-18Z" fill="#00cbff" /><path d="M184 116c-4 13 9 19 8 10c3 4 8 2 12 2c-8 11-13 7-22 10c4-3 0-13-6-20c6 4 7 0 8-2ZM198 138c13-3 11-17 4-12c1-5-2-8-4-10c14 1 13 7 20 12c-5-2-11 6-14 16c1-7-4-6-6-6ZM208 116c-9-10-21-2-12 2c-5 1-6 5-8 8c-5-13 0-15 2-24c1 5 11 7 20 6c-7 3-3 6-2 8Z" fill="#ff9a00" /></g><g transform="translate(1200,0)"><path fill="#E41E20" d="M0 0h240v180h-240" /><path d="M120 145l-8-11c0 0 8-9 1-11c-2-1-5 3-10 1c6-6 7-7 7-7l-9-1c0 0 24-15 11-18c-8 12-22 12-22 12l6 5c0 0-10-5-20 2c3-5 5-7-3-8c4 0 14-1 3-6c2 0 11 4 11 4c0 0 24-8 22-17c-9 9-16 8-16 8c2-4 5-7 5-11c-4 5-25 20-24 7c1 0 14-1 16-15c-14 3-18-1-17-4c3-1 17-1 16-5c-5-2-16-3-15-9c8 1 11 5 14 2c-2-3-18-8-14-13c3 1 13 6 15 2c-3-3-24-10-13-15c3 5 25 12 28 16c-3 10 15 10 4-4c-2-2-15-5-14-11c18-8 27 16 27 16c0 0 10-24 27-16c1 6-12 9-14 11c-11 14 7 14 4 4c3-4 25-12 28-16c11 5-10 12-13 15c3 4 13-1 15-2c3 5-12 10-14 13c4 3 7-1 14-2c1 6-10 7-15 9c-1 5 13 5 16 5c1 3-3 7-17 4c3 14 16 15 16 15c1 13-19-3-24-7c0 3 3 7 5 11c0 0-7 1-16-8c-2 9 22 17 22 17c0 0 9-4 11-4c-11 5-1 6 3 6c-9 1-6 2-3 8c-11-7-20-2-20-2l6-5c0 0-14 0-22-12c-13 2 11 18 11 18l-9 1c0 0 1 1 7 7c-5 2-9-2-10-1c-6 1 1 11 1 11l-7 11Z" fill="#000" /></g><g transform="translate(1440,0)"><path fill="#FF0000" d="M0 0h240v60h-240" /><path fill="#0000FF" d="M0 60h240v60h-240" /><path fill="#FFA500" d="M0 120h240v60h-240" /></g><g transform="translate(1680,0)"><path fill="#FF0000" d="M0 0h240v90h-240" /><path fill="#000000" d="M0 90h240v90h-240" /><path d="M88 49l-1 6c34 11 39 35 20 61c-27-16-32-18-35-27c-12 15 5 21 26 34c-12 5-24 3-38-4l-4 5c6 2 2 6 8 9c7 3 5-3 11-2c7 1 1 5 8 6c8 0 3-5 8-6c6-1 3 4 10 3c7-2 0-5 5-7l31 17l5-6l-27-17c6-14 7-4 12-12c4-8-5-4-2-11c1-5 5 0 5-7c0-8-5 0-5-8c0-7 5-2 2-9c-3-9-5 3-8-5c-3-7 3-4-1-10c-5-7-5 3-10-2c-4-5 2-5-6-8c-8-3-3 5-13 1ZM83 71l3-9l3 9l9 0l-7 6l2 9l-8-6l-8 5l3-9l-7-5l9 0Z" fill="#FFEE00" /></g><g transform="translate(1920,0)"><path fill="#3a7dce" d="M0 0h240v180h-240" /><path d="M54 53c6 6 14 12 23 17c19 0 15-22 26-30c8-11 32-2 61 12l3 26c13 7 17 22-6 52c-12 16-26 18-42 10c4-5 6-10 3-17c-12 5-35 2-48-7c1-13-10-11-10-20c12-22-15-25-10-42Z" style="fill:#fff" /></g><g transform="translate(2160,0)"><path d="M0 0h240v180h-240" fill="#000066" /><path d="M221 0h19v180h-20l-220-55v-69Z" fill="#bf0a19" /><path d="M0 66l240-60v168l-240-59v-49Z" fill="#fff" /><path d="M133 83c61-32 61-11 97-19c8 4 7 12 2 22c-46-9-82-1-90 7l-14 2ZM208 80l4-11l22 1l-23 4l24 2l-24 1l23 6Z" stroke="#000" /><path d="M158 44l71-20c1 9-11 29-11 29l-17 11l13 2v16h-10c6 4 7 9 2 16c-6 1-8 4-3 9c-8-1-11 8-11 8l-13-2c0 0 5-28-17-26c5-3 0-15-6-13c3-3 3-10-10-2c-19-3 4-13 4-16c-2-6 0-10 8-12Z" fill="#9e3900" stroke="#000" /><path d="M115 105l18-4l6 7l2-6l5 1l3 6l11 3l2-3l12 7l11-10l6 4l-3 8l29 7l-3 7l-57-3l39 6l3 6l-8 5l-46-12l-9-8l4-5l25 3l3-2l4-3l-12 1l-1-4l-11-2l-5 5l-5-1l1-6l-8 4ZM184 124l-1 3l25 2l-24-5ZM130 100c-5-3-5-7 0-11l2 5h10c-2 3-5 4-11 4c-1 1-1 2-1 2Z" fill="#ffc300" stroke="#000" /><path d="M168 70c0 7 7 11 22 10M178 84c6 4 8 11 6 21h8l1-6l7-3l-4-8M227 29l-68 26l65-22l-54 24l52-16l-45 21l41-13l-34 17l25 4l-7 3l5 3l-6 2M142 86l2-5l-8 5l3 2v-4c-2 1-4 2-4 4M177 115l-8 16l11-14l-7 14l11-13l-6 13M180 137l-34-7l35 10" stroke="#000" /></g><g transform="translate(0,180)"><path d="M0 0h240v180h-240" fill="#000068" /><path d="M115 92h14v-12l-115-80h-14v12l115 80ZM115 0h14v12l-115 80h-14v-12l115-80Z" fill="#fff" /><path d="M53 0h23v30h53v32h-53v30h-23v-30h-53v-32h53Z" fill="#fff" /><path d="M57 0h15v36h57v20h-57v36h-15v-36h-57v-20h57Z" fill="#ce0000" /><path d="M32 30l-31-22v-8l42 30ZM40 62h10l-40 30h-10ZM88 62h10l31 22v8ZM90 29h-10l41-29h10Z" fill="#ce0000" /><path d="M87 115l5 15l15-5l-9 14l13 8l-16 1l2 16l-11-12l-11 11l2-15l-16-2l13-8l-8-13l15 5ZM144 97l4-8l4 7l7 3l-7 4l-4 7l-3-7l-7-4ZM218 87l4-8l4 7l7 3l-7 4l-4 7l-3-7l-7-4ZM183 160l4-8l4 7l7 3l-7 4l-4 7l-3-7l-7-4ZM201 114l2-4l2 4l4 2l-4 2l-2 4l-2-4l-4-2ZM183 55l4-8l4 7l7 3l-7 4l-4 7l-3-7l-7-4Z" fill="#fff" /></g><g transform="translate(240,180)"><path d="M0 0h240v180h-240" fill="#00C4FF" /><path d="M0 60h240v60h-240" fill="#FFF" /><path d="M118 73c1-25 2-31 4 0c6-21 9-32 3 1c13-26 13-24 4 1c17-23 18-22 3 2c22-19 23-18 3 2c26-16 25-13 2 4c27-11 28-10 2 3c32-6 26-3 0 4c33 1 26 2 0 4c25 7 31 9-1 3c26 13 27 15-1 4c26 19 19 16-2 3c25 28 14 18-2 2c16 27 14 26-3 2c11 29 8 26-4 1c6 30 4 26-3 1c-2 22-3 35-3 0c-6 20-11 34-4-1c-12 24-15 27-3-1c-17 23-19 24-3-2c-16 15-27 24-2-2c-20 11-31 17-2-3c-24 8-31 10-1-3c-25 4-35 5-1-3c-30-1-28-2 0-4c-25-6-31-8 1-4c-30-13-24-12 1-2c-22-15-26-19 2-3c-16-17-23-25 2-2c-14-23-16-29 3-2c-10-26-10-28 3-1c-5-26-5-30 3-1Z" fill="#ffd600" stroke="#e9c600" /><path d="M111 83h8M122 83h8M118 94l4 0M115 98l9 0M117 100l5 0M111 86l7 0l-4 2M124 86l6 0l-4 2" stroke="#a38900" /><ellipse cx="121" cy="91" rx="17" ry="17" stroke="#fff" /></g><g transform="translate(480,180)"><path d="M0 0h240v180h-240" fill="#DF0000" /><path d="M0 60h240v60h-240" fill="#FFF" /></g><g transform="translate(720,180)"><path d="M0 0h240v180h-240Z" fill="#0053a5" /><path d="M0 64h240v54h-240ZM64 0h54v180h-54Z" fill="#ffce00" /><path d="M0 80h240v22h-240ZM80 0h20v180h-20Z" fill="#d21034" /></g><g transform="translate(960,180)"><path d="M0 0h240v60h-240Z" fill="#00b9e4" /><path d="M0 60h240v60h-240Z" fill="#ed2939" /><path d="M0 120h240v60h-240Z" fill="#3f9c35" /><path d="M136 73a27 27 0 1 0 0 34a23 23 0 1 1 0-34Z" fill="#fff" /><path d="M133 101l10-25l10 25l-25-10l25-10l-10 25l-10-25l25 10Z" fill="white"> </path></g><g transform="translate(1200,180)"><path d="M0 0h240v180h-240Z" fill="#2c98ce" /><path d="M0 120h240v10h-240ZM0 140h240v10h-240Z" fill="#ff0" /><path d="M45 42l8-29l8 29l29 8l-29 8l-8 29l-8-29l-29-8l29-8Z" fill="#ce0000" stroke="#fff" /></g></svg>